<svg width="36" height="29" viewBox="0 0 36 29" fill="none" xmlns="http://www.w3.org/2000/svg">
<path d="M31.4999 0H4.49999C3.30652 0 2.16193 0.381919 1.31802 1.06174C0.474105 1.74156 0 2.66359 0 3.625L0 24.1667H10.35L16.062 28.0551C16.6034 28.4237 17.2895 28.626 17.9985 28.626C18.7074 28.626 19.3935 28.4237 19.935 28.0551L25.6499 24.1667H35.9999V3.625C35.9999 2.66359 35.5258 1.74156 34.6819 1.06174C33.838 0.381919 32.6934 0 31.4999 0V0ZM8.99998 6.04167H18V8.45833H8.99998V6.04167ZM26.9999 18.125H8.99998V15.7083H26.9999V18.125ZM26.9999 13.2917H8.99998V10.875H26.9999V13.2917Z" fill="black"/>
</svg>
