<svg width="31" height="26" viewBox="0 0 31 26" fill="none" xmlns="http://www.w3.org/2000/svg">
<path d="M24.8312 2.94173C23.2305 1.81721 21.3713 0.984774 19.3707 0.496866C17.3701 0.00895745 15.2715 -0.123844 13.2071 0.106828C9.38811 0.525683 5.90104 2.15586 3.45397 4.66635C1.00691 7.17684 -0.216715 10.3795 0.0315592 13.6239C0.279834 16.8684 1.98139 19.9114 4.79074 22.1353C7.60009 24.3591 11.3066 25.5969 15.1577 25.5974H23.9785C25.6531 25.5958 27.2587 25.0334 28.4429 24.0336C29.627 23.0339 30.2932 21.6785 30.2952 20.2647V12.0618V11.9946C30.1615 10.2513 29.608 8.54929 28.6685 6.99272C27.729 5.43615 26.4233 4.05772 24.8312 2.94173V2.94173ZM10.0816 7.46604H15.135C15.4701 7.46604 15.7914 7.57841 16.0283 7.77843C16.2653 7.97845 16.3984 8.24973 16.3984 8.5326C16.3984 8.81546 16.2653 9.08675 16.0283 9.28676C15.7914 9.48678 15.4701 9.59915 15.135 9.59915H10.0816C9.74654 9.59915 9.42521 9.48678 9.18828 9.28676C8.95136 9.08675 8.81826 8.81546 8.81826 8.5326C8.81826 8.24973 8.95136 7.97845 9.18828 7.77843C9.42521 7.57841 9.74654 7.46604 10.0816 7.46604V7.46604ZM20.1884 18.1316H10.0816C9.74654 18.1316 9.42521 18.0192 9.18828 17.8192C8.95136 17.6192 8.81826 17.3479 8.81826 17.065C8.81826 16.7822 8.95136 16.5109 9.18828 16.3109C9.42521 16.1108 9.74654 15.9985 10.0816 15.9985H20.1884C20.5235 15.9985 20.8448 16.1108 21.0817 16.3109C21.3187 16.5109 21.4518 16.7822 21.4518 17.065C21.4518 17.3479 21.3187 17.6192 21.0817 17.8192C20.8448 18.0192 20.5235 18.1316 20.1884 18.1316ZM20.1884 13.8654H10.0816C9.74654 13.8654 9.42521 13.753 9.18828 13.553C8.95136 13.353 8.81826 13.0817 8.81826 12.7988C8.81826 12.5159 8.95136 12.2447 9.18828 12.0446C9.42521 11.8446 9.74654 11.7323 10.0816 11.7323H20.1884C20.5235 11.7323 20.8448 11.8446 21.0817 12.0446C21.3187 12.2447 21.4518 12.5159 21.4518 12.7988C21.4518 13.0817 21.3187 13.353 21.0817 13.553C20.8448 13.753 20.5235 13.8654 20.1884 13.8654Z" fill="white"/>
</svg>
