<svg width="40" height="30" viewBox="0 0 40 30" fill="none" xmlns="http://www.w3.org/2000/svg">
<path d="M33.3153 2.49375C30.8216 1.33125 28.1216 0.4875 25.3091 0C25.2596 0.000704446 25.2124 0.0209227 25.1778 0.0562504C24.8403 0.675 24.4466 1.48125 24.1841 2.1C21.2009 1.65028 18.1672 1.65028 15.1841 2.1C14.9216 1.4625 14.5278 0.675 14.1716 0.0562504C14.1528 0.0187504 14.0966 0 14.0403 0C11.2278 0.4875 8.54656 1.33125 6.03406 2.49375C6.01531 2.49375 5.99656 2.5125 5.97781 2.53125C0.877808 10.1625 -0.528442 17.5875 0.165308 24.9375C0.165308 24.975 0.184058 25.0125 0.221558 25.0312C3.59656 27.5063 6.84031 29.0063 10.0466 30C10.1028 30.0187 10.1591 30 10.1778 29.9625C10.9278 28.9312 11.6028 27.8438 12.1841 26.7C12.2216 26.625 12.1841 26.55 12.1091 26.5312C11.0403 26.1187 10.0278 25.6313 9.03406 25.0688C8.95906 25.0313 8.95906 24.9188 9.01531 24.8625C9.22156 24.7125 9.42781 24.5438 9.63406 24.3938C9.67156 24.3563 9.72781 24.3563 9.76531 24.375C16.2153 27.3188 23.1716 27.3188 29.5466 24.375C29.5841 24.3563 29.6403 24.3563 29.6778 24.3938C29.8841 24.5625 30.0903 24.7125 30.2966 24.8813C30.3716 24.9375 30.3716 25.05 30.2778 25.0875C29.3028 25.6687 28.2716 26.1375 27.2028 26.55C27.1278 26.5688 27.1091 26.6625 27.1278 26.7188C27.7278 27.8625 28.4028 28.95 29.1341 29.9812C29.1903 30 29.2466 30.0187 29.3028 30C32.5278 29.0063 35.7716 27.5063 39.1466 25.0312C39.1841 25.0125 39.2028 24.975 39.2028 24.9375C40.0278 16.4437 37.8341 9.075 33.3903 2.53125C33.3716 2.5125 33.3528 2.49375 33.3153 2.49375ZM13.1591 20.4562C11.2278 20.4562 9.61531 18.675 9.61531 16.4813C9.61531 14.2875 11.1903 12.5063 13.1591 12.5063C15.1466 12.5063 16.7216 14.3062 16.7028 16.4813C16.7028 18.675 15.1278 20.4562 13.1591 20.4562ZM26.2278 20.4562C24.2966 20.4562 22.6841 18.675 22.6841 16.4813C22.6841 14.2875 24.2591 12.5063 26.2278 12.5063C28.2153 12.5063 29.7903 14.3062 29.7716 16.4813C29.7716 18.675 28.2153 20.4562 26.2278 20.4562Z" fill="#0F6FB8"/>
<path d="M33.3153 2.49375C30.8216 1.33125 28.1216 0.4875 25.3091 0C25.2596 0.000704446 25.2124 0.0209227 25.1778 0.0562504C24.8403 0.675 24.4466 1.48125 24.1841 2.1C21.2009 1.65028 18.1672 1.65028 15.1841 2.1C14.9216 1.4625 14.5278 0.675 14.1716 0.0562504C14.1528 0.0187504 14.0966 0 14.0403 0C11.2278 0.4875 8.54656 1.33125 6.03406 2.49375C6.01531 2.49375 5.99656 2.5125 5.97781 2.53125C0.877808 10.1625 -0.528442 17.5875 0.165308 24.9375C0.165308 24.975 0.184058 25.0125 0.221558 25.0312C3.59656 27.5063 6.84031 29.0063 10.0466 30C10.1028 30.0187 10.1591 30 10.1778 29.9625C10.9278 28.9312 11.6028 27.8438 12.1841 26.7C12.2216 26.625 12.1841 26.55 12.1091 26.5312C11.0403 26.1187 10.0278 25.6313 9.03406 25.0688C8.95906 25.0313 8.95906 24.9188 9.01531 24.8625C9.22156 24.7125 9.42781 24.5438 9.63406 24.3938C9.67156 24.3563 9.72781 24.3563 9.76531 24.375C16.2153 27.3188 23.1716 27.3188 29.5466 24.375C29.5841 24.3563 29.6403 24.3563 29.6778 24.3938C29.8841 24.5625 30.0903 24.7125 30.2966 24.8813C30.3716 24.9375 30.3716 25.05 30.2778 25.0875C29.3028 25.6687 28.2716 26.1375 27.2028 26.55C27.1278 26.5688 27.1091 26.6625 27.1278 26.7188C27.7278 27.8625 28.4028 28.95 29.1341 29.9812C29.1903 30 29.2466 30.0187 29.3028 30C32.5278 29.0063 35.7716 27.5063 39.1466 25.0312C39.1841 25.0125 39.2028 24.975 39.2028 24.9375C40.0278 16.4437 37.8341 9.075 33.3903 2.53125C33.3716 2.5125 33.3528 2.49375 33.3153 2.49375ZM13.1591 20.4562C11.2278 20.4562 9.61531 18.675 9.61531 16.4813C9.61531 14.2875 11.1903 12.5063 13.1591 12.5063C15.1466 12.5063 16.7216 14.3062 16.7028 16.4813C16.7028 18.675 15.1278 20.4562 13.1591 20.4562ZM26.2278 20.4562C24.2966 20.4562 22.6841 18.675 22.6841 16.4813C22.6841 14.2875 24.2591 12.5063 26.2278 12.5063C28.2153 12.5063 29.7903 14.3062 29.7716 16.4813C29.7716 18.675 28.2153 20.4562 26.2278 20.4562Z" fill="#0B6E6E"/>
</svg>
