<svg width="38" height="38" viewBox="0 0 38 38" fill="none" xmlns="http://www.w3.org/2000/svg">
<path d="M37.5 18.75C37.5 8.4 29.1 0 18.75 0C8.4 0 0 8.4 0 18.75C0 27.825 6.45 35.3812 15 37.125V24.375H11.25V18.75H15V14.0625C15 10.4437 17.9438 7.5 21.5625 7.5H26.25V13.125H22.5C21.4688 13.125 20.625 13.9687 20.625 15V18.75H26.25V24.375H20.625V37.4062C30.0938 36.4688 37.5 28.4812 37.5 18.75Z" fill="#0F6FB8"/>
<path d="M37.5 18.75C37.5 8.4 29.1 0 18.75 0C8.4 0 0 8.4 0 18.75C0 27.825 6.45 35.3812 15 37.125V24.375H11.25V18.75H15V14.0625C15 10.4437 17.9438 7.5 21.5625 7.5H26.25V13.125H22.5C21.4688 13.125 20.625 13.9687 20.625 15V18.75H26.25V24.375H20.625V37.4062C30.0938 36.4688 37.5 28.4812 37.5 18.75Z" fill="#0B6E6E"/>
</svg>
