<svg width="35" height="35" viewBox="0 0 35 35" fill="none" xmlns="http://www.w3.org/2000/svg">
<path d="M17.687 0C10.7814 0 4.74577 3.80812 1.90139 9.54C0.652067 11.9519 0 14.6284 0 17.3447C0 20.0609 0.652067 22.7375 1.90139 25.1494C4.74577 30.8794 10.7814 34.6875 17.687 34.6875C22.4495 34.6875 26.537 33.1369 29.3945 30.5175C34.052 26.4431 35.3664 20.0194 34.3783 14.2275C34.3597 14.1185 34.3032 14.0197 34.2188 13.9483C34.1344 13.8769 34.0275 13.8377 33.917 13.8375H17.687C17.5627 13.8375 17.4435 13.8869 17.3556 13.9748C17.2677 14.0627 17.2183 14.1819 17.2183 14.3063V20.55C17.2183 20.8088 17.4283 21.0187 17.687 21.0187H26.627C26.3158 22.4062 25.3389 24.2944 23.4676 25.5619L23.4526 25.5713C22.1683 26.5125 20.1995 27.1687 17.687 27.1687C12.182 27.1687 7.79639 22.5656 7.79639 17.175C7.79639 11.9569 12.4314 7.35 17.687 7.35C20.8183 7.35 22.787 8.63062 24.1164 9.76875C24.2053 9.84478 24.3194 9.88481 24.4363 9.88099C24.5532 9.87718 24.6645 9.82979 24.7483 9.74813L29.582 5.02312C29.6285 4.97781 29.665 4.92335 29.6893 4.86318C29.7136 4.80301 29.7252 4.73846 29.7232 4.6736C29.7213 4.60874 29.7059 4.54498 29.678 4.48638C29.6502 4.42777 29.6105 4.37558 29.5614 4.33312C26.5445 1.73062 22.4664 0 17.687 0Z" fill="#0F6FB8"/>
<path d="M17.687 0C10.7814 0 4.74577 3.80812 1.90139 9.54C0.652067 11.9519 0 14.6284 0 17.3447C0 20.0609 0.652067 22.7375 1.90139 25.1494C4.74577 30.8794 10.7814 34.6875 17.687 34.6875C22.4495 34.6875 26.537 33.1369 29.3945 30.5175C34.052 26.4431 35.3664 20.0194 34.3783 14.2275C34.3597 14.1185 34.3032 14.0197 34.2188 13.9483C34.1344 13.8769 34.0275 13.8377 33.917 13.8375H17.687C17.5627 13.8375 17.4435 13.8869 17.3556 13.9748C17.2677 14.0627 17.2183 14.1819 17.2183 14.3063V20.55C17.2183 20.8088 17.4283 21.0187 17.687 21.0187H26.627C26.3158 22.4062 25.3389 24.2944 23.4676 25.5619L23.4526 25.5713C22.1683 26.5125 20.1995 27.1687 17.687 27.1687C12.182 27.1687 7.79639 22.5656 7.79639 17.175C7.79639 11.9569 12.4314 7.35 17.687 7.35C20.8183 7.35 22.787 8.63062 24.1164 9.76875C24.2053 9.84478 24.3194 9.88481 24.4363 9.88099C24.5532 9.87718 24.6645 9.82979 24.7483 9.74813L29.582 5.02312C29.6285 4.97781 29.665 4.92335 29.6893 4.86318C29.7136 4.80301 29.7252 4.73846 29.7232 4.6736C29.7213 4.60874 29.7059 4.54498 29.678 4.48638C29.6502 4.42777 29.6105 4.37558 29.5614 4.33312C26.5445 1.73062 22.4664 0 17.687 0Z" fill="#0B6E6E"/>
</svg>
