<svg width="29" height="29" viewBox="0 0 29 29" fill="none" xmlns="http://www.w3.org/2000/svg">
<path d="M16.1167 0.620449C15.6729 0.221018 15.097 0 14.5 0C13.9029 0 13.327 0.221018 12.8832 0.620449L0 12.2156V24.7823C0 25.8078 0.407379 26.7913 1.13252 27.5164C1.85766 28.2416 2.84116 28.649 3.86666 28.649H8.45831V20.1556C8.45831 18.5532 9.09484 17.0165 10.2279 15.8835C11.3609 14.7504 12.8976 14.1139 14.5 14.1139C16.1023 14.1139 17.639 14.7504 18.7721 15.8835C19.9051 17.0165 20.5416 18.5532 20.5416 20.1556V28.6453H25.1333C26.1588 28.6453 27.1423 28.2379 27.8674 27.5128C28.5926 26.7877 28.9999 25.8042 28.9999 24.7787V12.212L16.1167 0.620449Z" fill="black"/>
<path d="M16.1167 0.620449C15.6729 0.221018 15.097 0 14.5 0C13.9029 0 13.327 0.221018 12.8832 0.620449L0 12.2156V24.7823C0 25.8078 0.407379 26.7913 1.13252 27.5164C1.85766 28.2416 2.84116 28.649 3.86666 28.649H8.45831V20.1556C8.45831 18.5532 9.09484 17.0165 10.2279 15.8835C11.3609 14.7504 12.8976 14.1139 14.5 14.1139C16.1023 14.1139 17.639 14.7504 18.7721 15.8835C19.9051 17.0165 20.5416 18.5532 20.5416 20.1556V28.6453H25.1333C26.1588 28.6453 27.1423 28.2379 27.8674 27.5128C28.5926 26.7877 28.9999 25.8042 28.9999 24.7787V12.212L16.1167 0.620449Z" fill="#0B6E6E"/>
<path d="M16.1167 0.620449C15.6729 0.221018 15.097 0 14.5 0C13.9029 0 13.327 0.221018 12.8832 0.620449L0 12.2156V24.7823C0 25.8078 0.407379 26.7913 1.13252 27.5164C1.85766 28.2416 2.84116 28.649 3.86666 28.649H8.45831V20.1556C8.45831 18.5532 9.09484 17.0165 10.2279 15.8835C11.3609 14.7504 12.8976 14.1139 14.5 14.1139C16.1023 14.1139 17.639 14.7504 18.7721 15.8835C19.9051 17.0165 20.5416 18.5532 20.5416 20.1556V28.6453H25.1333C26.1588 28.6453 27.1423 28.2379 27.8674 27.5128C28.5926 26.7877 28.9999 25.8042 28.9999 24.7787V12.212L16.1167 0.620449Z" fill="black" fill-opacity="0.2"/>
</svg>
