<svg width="22" height="22" viewBox="0 0 22 22" fill="none" xmlns="http://www.w3.org/2000/svg">
<path d="M13.2687 15.9074H8.70366C6.06366 15.9074 3.92554 13.7692 3.92554 11.1292V8.13174H18.0399V11.1292C18.0468 13.7692 15.9087 15.9074 13.2687 15.9074Z" fill="#533566"/>
<path d="M11.7769 3.62862L20.2194 7.95299C20.7419 8.22112 20.7419 8.97049 20.2194 9.23862L11.7769 13.563C11.2819 13.8174 10.7044 13.8174 10.2094 13.563L1.76687 9.23862C1.24438 8.97049 1.24438 8.22112 1.76687 7.95299L10.2094 3.62862C10.4516 3.50324 10.7204 3.43781 10.9931 3.43781C11.2659 3.43781 11.5346 3.50324 11.7769 3.62862Z" fill="#321B41"/>
<path d="M10.4156 8.283C10.5463 8.00113 10.8831 7.89113 11.1581 8.02863L15.7713 10.3936C15.9569 10.4899 16.0669 10.6755 16.0669 10.8818V15.1993C16.3273 15.3263 16.5359 15.5394 16.6574 15.8024C16.7789 16.0654 16.8058 16.3624 16.7338 16.643V16.6568C16.7269 16.6843 16.72 16.7186 16.7063 16.7461C16.7063 16.753 16.6994 16.7599 16.6994 16.7668C16.6925 16.7943 16.6788 16.8218 16.665 16.8493C16.665 16.8561 16.6581 16.863 16.6581 16.863C16.6238 16.9386 16.5756 17.0143 16.5275 17.0761C16.5206 17.0899 16.5138 17.0968 16.5 17.1105L16.8231 18.623C16.8652 18.8178 16.8632 19.0196 16.8171 19.2135C16.771 19.4074 16.682 19.5885 16.5567 19.7434C16.4314 19.8984 16.2729 20.0234 16.093 20.109C15.913 20.1947 15.7162 20.239 15.5169 20.2386C15.3176 20.239 15.1207 20.1947 14.9408 20.109C14.7608 20.0234 14.6024 19.8984 14.4771 19.7434C14.3518 19.5885 14.2628 19.4074 14.2167 19.2135C14.1706 19.0196 14.1685 18.8178 14.2106 18.623L14.5338 17.1105C14.3619 16.8974 14.2588 16.6293 14.2588 16.3336C14.2588 16.1618 14.2931 15.9968 14.355 15.8524C14.355 15.8455 14.3619 15.8386 14.3688 15.8318C14.3756 15.8111 14.3894 15.7836 14.4031 15.763C14.4169 15.7355 14.4306 15.708 14.4513 15.6805C14.4581 15.6736 14.4581 15.6668 14.465 15.6599C14.5888 15.4674 14.7675 15.3093 14.9738 15.2061V11.2186L10.6769 9.01863C10.4088 8.88113 10.285 8.55113 10.4156 8.283Z" fill="#FFB02E"/>
</svg>
