<svg width="15" height="11" viewBox="0 0 15 11" fill="none" xmlns="http://www.w3.org/2000/svg">
<path d="M10.5143 0L3.12497 0C2.29648 0.000860089 1.5022 0.286478 0.916361 0.794202C0.330524 1.30193 0.000966185 1.9903 -2.6226e-05 2.70833V8.125C0.000966185 8.84303 0.330524 9.53141 0.916361 10.0391C1.5022 10.5469 2.29648 10.8325 3.12497 10.8333H10.5143C10.8487 10.8333 11.1769 10.7558 11.465 10.6088C11.7532 10.4619 11.9907 10.2508 12.1531 9.99754L14.9212 5.67992C14.9729 5.5994 15 5.50879 15 5.41667C15 5.32454 14.9729 5.23393 14.9212 5.15342L12.1531 0.835792C11.9907 0.582511 11.7532 0.371461 11.465 0.224508C11.1769 0.0775544 10.8487 4.17512e-05 10.5143 0V0ZM11.5625 5.41667C11.5625 5.57736 11.5075 5.73445 11.4045 5.86807C11.3015 6.00168 11.155 6.10582 10.9837 6.16732C10.8124 6.22881 10.6239 6.2449 10.4421 6.21355C10.2602 6.1822 10.0932 6.10482 9.96206 5.99119C9.83095 5.87756 9.74166 5.73279 9.70549 5.57518C9.66931 5.41757 9.68788 5.2542 9.75884 5.10574C9.82979 4.95727 9.94996 4.83038 10.1041 4.7411C10.2583 4.65182 10.4396 4.60417 10.625 4.60417C10.8736 4.60417 11.1121 4.68977 11.2879 4.84214C11.4637 4.99452 11.5625 5.20118 11.5625 5.41667V5.41667Z" fill="#FFC847"/>
</svg>
