<svg width="359" height="290" viewBox="0 0 359 290" fill="none" xmlns="http://www.w3.org/2000/svg">
<g clip-path="url(#clip0_355_130)">
<path d="M126.965 75.731L100.236 60.1411L180.424 13.3647L260.612 60.1411V116.941H247.247V67.9394L233.883 75.731V120.356L232.392 122.193C226.135 129.95 218.219 136.206 209.225 140.501C200.232 144.796 190.39 147.021 180.424 147.012C170.458 147.021 160.616 144.796 151.623 140.501C142.629 136.206 134.713 129.95 128.455 122.193L126.965 120.356V75.731ZM140.33 83.5293V115.551C145.341 121.246 151.51 125.805 158.424 128.926C165.338 132.046 172.838 133.656 180.424 133.647C188.01 133.656 195.51 132.046 202.424 128.926C209.338 125.805 215.507 121.246 220.518 115.551V83.5293L180.424 106.918L140.33 83.5293ZM126.765 60.1411L180.424 91.4479L234.083 60.1411L180.424 28.8344L126.765 60.1411Z" fill="black"/>
<path d="M126.965 75.731L100.236 60.1411L180.424 13.3647L260.612 60.1411V116.941H247.247V67.9394L233.883 75.731V120.356L232.392 122.193C226.135 129.95 218.219 136.206 209.225 140.501C200.232 144.796 190.39 147.021 180.424 147.012C170.458 147.021 160.616 144.796 151.623 140.501C142.629 136.206 134.713 129.95 128.455 122.193L126.965 120.356V75.731ZM140.33 83.5293V115.551C145.341 121.246 151.51 125.805 158.424 128.926C165.338 132.046 172.838 133.656 180.424 133.647C188.01 133.656 195.51 132.046 202.424 128.926C209.338 125.805 215.507 121.246 220.518 115.551V83.5293L180.424 106.918L140.33 83.5293ZM126.765 60.1411L180.424 91.4479L234.083 60.1411L180.424 28.8344L126.765 60.1411Z" fill="#0B6E6E"/>
</g>
<path d="M118.526 156.067C118.466 172.616 124.982 188.512 136.642 200.257C148.302 212.002 164.149 218.634 180.699 218.695C197.249 218.755 213.144 212.239 224.889 200.579C236.634 188.919 243.266 173.072 243.327 156.522L219.927 156.437C219.889 166.78 215.744 176.685 208.403 183.972C201.063 191.26 191.128 195.332 180.784 195.295C170.441 195.257 160.536 191.112 153.249 183.771C145.962 176.43 141.889 166.496 141.927 156.152L118.526 156.067Z" fill="black"/>
<path d="M118.526 156.067C118.466 172.616 124.982 188.512 136.642 200.257C148.302 212.002 164.149 218.634 180.699 218.695C197.249 218.755 213.144 212.239 224.889 200.579C236.634 188.919 243.266 173.072 243.327 156.522L219.927 156.437C219.889 166.78 215.744 176.685 208.403 183.972C201.063 191.26 191.128 195.332 180.784 195.295C170.441 195.257 160.536 191.112 153.249 183.771C145.962 176.43 141.889 166.496 141.927 156.152L118.526 156.067Z" fill="#FF8C00"/>
<path d="M43.9084 232.141L53.5564 255.037L62.0044 232.333H67.7164L53.9884 267.613H53.3164L43.7164 244.765L34.1644 267.565H33.4924L19.7644 232.333H25.4764L33.9244 255.037L43.6204 232.141H43.9084ZM76.7067 268.093C74.7547 268.093 72.9307 267.629 71.2347 266.701C69.5707 265.773 68.2267 264.445 67.2027 262.717C66.1787 260.989 65.6667 258.925 65.6667 256.525C65.6667 254.221 66.0987 252.205 66.9627 250.477C67.8587 248.749 69.1067 247.405 70.7067 246.445C72.3387 245.485 74.2747 245.005 76.5147 245.005C77.8587 245.005 79.0747 245.245 80.1627 245.725C81.2827 246.173 82.2107 246.733 82.9467 247.405C83.7147 248.045 84.2267 248.669 84.4827 249.277L84.5787 245.581H89.5227V267.613H84.6267L84.5307 263.725C84.2107 264.429 83.6667 265.117 82.8987 265.789C82.1627 266.461 81.2667 267.021 80.2107 267.469C79.1547 267.885 77.9867 268.093 76.7067 268.093ZM77.5707 263.773C78.7547 263.773 79.8267 263.501 80.7867 262.957C81.7787 262.381 82.5627 261.581 83.1387 260.557C83.7467 259.533 84.0507 258.317 84.0507 256.909V256.573C84.0507 255.133 83.7467 253.885 83.1387 252.829C82.5627 251.741 81.7787 250.909 80.7867 250.333C79.8267 249.725 78.7547 249.421 77.5707 249.421C75.4267 249.421 73.8107 250.109 72.7227 251.485C71.6667 252.861 71.1387 254.557 71.1387 256.573C71.1387 258.621 71.6667 260.333 72.7227 261.709C73.8107 263.085 75.4267 263.773 77.5707 263.773ZM95.6937 267.613V245.581H100.878V249.901C101.39 248.461 102.206 247.293 103.326 246.397C104.478 245.469 105.806 245.005 107.31 245.005C108.334 245.005 109.038 245.101 109.422 245.293L108.702 250.525C108.414 250.333 107.79 250.237 106.83 250.237C106.03 250.237 105.166 250.413 104.238 250.765C103.31 251.117 102.51 251.741 101.838 252.637C101.198 253.501 100.878 254.717 100.878 256.285V267.613H95.6937ZM112.956 267.613V245.581H118.332V267.613H112.956ZM115.644 241.453C114.652 241.453 113.82 241.117 113.148 240.445C112.508 239.773 112.188 238.941 112.188 237.949C112.188 237.053 112.508 236.285 113.148 235.645C113.82 235.005 114.652 234.685 115.644 234.685C116.636 234.685 117.452 235.005 118.092 235.645C118.764 236.285 119.1 237.053 119.1 237.949C119.1 238.941 118.764 239.773 118.092 240.445C117.452 241.117 116.636 241.453 115.644 241.453ZM132.156 268.093C131.132 268.093 130.06 267.997 128.94 267.805C127.852 267.613 126.844 267.373 125.916 267.085C125.02 266.765 124.332 266.429 123.852 266.077L125.58 261.997C126.124 262.381 126.94 262.813 128.028 263.293C129.148 263.773 130.524 264.013 132.156 264.013C133.596 264.013 134.572 263.805 135.084 263.389C135.596 262.941 135.852 262.429 135.852 261.853C135.852 261.245 135.628 260.781 135.18 260.461C134.764 260.109 134.156 259.789 133.356 259.501C132.556 259.213 131.612 258.861 130.524 258.445C129.468 257.997 128.46 257.485 127.5 256.909C126.54 256.301 125.756 255.565 125.148 254.701C124.572 253.805 124.284 252.717 124.284 251.437C124.284 249.357 125.084 247.773 126.684 246.685C128.284 245.565 130.396 245.005 133.02 245.005C134.364 245.005 135.66 245.149 136.908 245.437C138.188 245.725 139.148 246.093 139.788 246.541L137.916 250.669C137.532 250.285 136.892 249.933 135.996 249.613C135.132 249.293 134.092 249.133 132.876 249.133C130.604 249.133 129.468 249.821 129.468 251.197C129.468 251.869 129.708 252.413 130.188 252.829C130.7 253.213 131.356 253.549 132.156 253.837C132.988 254.093 133.884 254.413 134.844 254.797C136.796 255.565 138.284 256.461 139.308 257.485C140.364 258.477 140.892 259.805 140.892 261.469C140.892 262.973 140.492 264.221 139.692 265.213C138.892 266.205 137.82 266.941 136.476 267.421C135.164 267.869 133.724 268.093 132.156 268.093ZM155.55 268.093C153.598 268.093 151.774 267.629 150.078 266.701C148.414 265.773 147.07 264.445 146.046 262.717C145.022 260.989 144.51 258.925 144.51 256.525C144.51 254.221 144.942 252.205 145.806 250.477C146.702 248.749 147.95 247.405 149.55 246.445C151.182 245.485 153.118 245.005 155.358 245.005C156.702 245.005 157.918 245.245 159.006 245.725C160.126 246.173 161.054 246.733 161.79 247.405C162.558 248.045 163.07 248.669 163.326 249.277L163.422 245.581H168.366V267.613H163.47L163.374 263.725C163.054 264.429 162.51 265.117 161.742 265.789C161.006 266.461 160.11 267.021 159.054 267.469C157.998 267.885 156.83 268.093 155.55 268.093ZM156.414 263.773C157.598 263.773 158.67 263.501 159.63 262.957C160.622 262.381 161.406 261.581 161.982 260.557C162.59 259.533 162.894 258.317 162.894 256.909V256.573C162.894 255.133 162.59 253.885 161.982 252.829C161.406 251.741 160.622 250.909 159.63 250.333C158.67 249.725 157.598 249.421 156.414 249.421C154.27 249.421 152.654 250.109 151.566 251.485C150.51 252.861 149.982 254.557 149.982 256.573C149.982 258.621 150.51 260.333 151.566 261.709C152.654 263.085 154.27 263.773 156.414 263.773ZM174.541 267.613V245.581H179.629L179.677 249.613C180.253 248.301 181.181 247.213 182.461 246.349C183.773 245.453 185.341 245.005 187.165 245.005C189.533 245.005 191.309 245.501 192.493 246.493C193.677 247.453 194.461 248.829 194.845 250.621C195.261 252.413 195.469 254.541 195.469 257.005V267.613H190.285V257.149C190.285 254.589 190.029 252.637 189.517 251.293C189.037 249.949 187.901 249.277 186.109 249.277C185.181 249.277 184.221 249.565 183.229 250.141C182.237 250.717 181.405 251.549 180.733 252.637C180.061 253.725 179.725 255.069 179.725 256.669V267.613H174.541ZM201.689 267.613V232.333H206.969V248.077L219.065 232.333H225.497L213.353 247.837L227.225 267.613H220.649L209.849 251.821L206.969 255.373V267.613H201.689ZM238.332 268.093C236.38 268.093 234.556 267.629 232.86 266.701C231.196 265.773 229.852 264.445 228.828 262.717C227.804 260.989 227.292 258.925 227.292 256.525C227.292 254.221 227.724 252.205 228.588 250.477C229.484 248.749 230.732 247.405 232.332 246.445C233.964 245.485 235.9 245.005 238.14 245.005C239.484 245.005 240.7 245.245 241.788 245.725C242.908 246.173 243.836 246.733 244.572 247.405C245.34 248.045 245.852 248.669 246.108 249.277L246.204 245.581H251.148V267.613H246.252L246.156 263.725C245.836 264.429 245.292 265.117 244.524 265.789C243.788 266.461 242.892 267.021 241.836 267.469C240.78 267.885 239.612 268.093 238.332 268.093ZM239.196 263.773C240.38 263.773 241.452 263.501 242.412 262.957C243.404 262.381 244.188 261.581 244.764 260.557C245.372 259.533 245.676 258.317 245.676 256.909V256.573C245.676 255.133 245.372 253.885 244.764 252.829C244.188 251.741 243.404 250.909 242.412 250.333C241.452 249.725 240.38 249.421 239.196 249.421C237.052 249.421 235.436 250.109 234.348 251.485C233.292 252.861 232.764 254.557 232.764 256.573C232.764 258.621 233.292 260.333 234.348 261.709C235.436 263.085 237.052 263.773 239.196 263.773ZM259.57 267.613V249.805H255.682V245.581H259.57V236.605L264.802 235.453V245.581H269.89V249.805H264.802V267.613H259.57ZM274.394 267.613V245.581H279.77V267.613H274.394ZM277.082 241.453C276.09 241.453 275.258 241.117 274.586 240.445C273.946 239.773 273.626 238.941 273.626 237.949C273.626 237.053 273.946 236.285 274.586 235.645C275.258 235.005 276.09 234.685 277.082 234.685C278.074 234.685 278.89 235.005 279.53 235.645C280.202 236.285 280.538 237.053 280.538 237.949C280.538 238.941 280.202 239.773 279.53 240.445C278.89 241.117 278.074 241.453 277.082 241.453ZM285.916 267.613V245.581H291.004L291.052 249.613C291.628 248.301 292.556 247.213 293.836 246.349C295.148 245.453 296.716 245.005 298.54 245.005C300.908 245.005 302.684 245.501 303.868 246.493C305.052 247.453 305.836 248.829 306.22 250.621C306.636 252.413 306.844 254.541 306.844 257.005V267.613H301.66V257.149C301.66 254.589 301.404 252.637 300.892 251.293C300.412 249.949 299.276 249.277 297.484 249.277C296.556 249.277 295.596 249.565 294.604 250.141C293.612 250.717 292.78 251.549 292.108 252.637C291.436 253.725 291.1 255.069 291.1 256.669V267.613H285.916ZM323.807 279.133C322.559 279.133 321.359 279.005 320.207 278.749C319.087 278.493 318.111 278.205 317.279 277.885C316.447 277.597 315.887 277.373 315.599 277.213L316.751 272.413C317.519 272.925 318.463 273.389 319.583 273.805C320.703 274.253 322.063 274.477 323.663 274.477C324.399 274.477 325.151 274.397 325.919 274.237C326.719 274.109 327.471 273.805 328.175 273.325C328.879 272.877 329.439 272.189 329.855 271.261C330.303 270.365 330.527 269.165 330.527 267.661V263.725C329.887 264.909 328.815 265.933 327.311 266.797C325.839 267.661 324.159 268.093 322.271 268.093C320.351 268.093 318.591 267.629 316.991 266.701C315.423 265.741 314.159 264.397 313.199 262.669C312.271 260.909 311.807 258.845 311.807 256.477C311.807 254.205 312.239 252.221 313.103 250.525C313.999 248.797 315.247 247.453 316.847 246.493C318.479 245.501 320.399 245.005 322.607 245.005C323.951 245.005 325.183 245.245 326.303 245.725C327.423 246.173 328.351 246.733 329.087 247.405C329.855 248.045 330.367 248.669 330.623 249.277L330.719 245.581H335.615V267.469C335.615 271.085 334.671 273.933 332.783 276.013C330.927 278.093 327.935 279.133 323.807 279.133ZM323.711 263.725C324.895 263.725 325.967 263.453 326.927 262.909C327.919 262.333 328.703 261.533 329.279 260.509C329.887 259.485 330.191 258.269 330.191 256.861V256.525C330.191 255.085 329.887 253.837 329.279 252.781C328.703 251.693 327.919 250.861 326.927 250.285C325.967 249.677 324.895 249.373 323.711 249.373C321.567 249.373 319.951 250.061 318.863 251.437C317.807 252.813 317.279 254.509 317.279 256.525C317.279 258.573 317.807 260.285 318.863 261.661C319.951 263.037 321.567 263.725 323.711 263.725Z" fill="black"/>
<path d="M43.9084 232.141L53.5564 255.037L62.0044 232.333H67.7164L53.9884 267.613H53.3164L43.7164 244.765L34.1644 267.565H33.4924L19.7644 232.333H25.4764L33.9244 255.037L43.6204 232.141H43.9084ZM76.7067 268.093C74.7547 268.093 72.9307 267.629 71.2347 266.701C69.5707 265.773 68.2267 264.445 67.2027 262.717C66.1787 260.989 65.6667 258.925 65.6667 256.525C65.6667 254.221 66.0987 252.205 66.9627 250.477C67.8587 248.749 69.1067 247.405 70.7067 246.445C72.3387 245.485 74.2747 245.005 76.5147 245.005C77.8587 245.005 79.0747 245.245 80.1627 245.725C81.2827 246.173 82.2107 246.733 82.9467 247.405C83.7147 248.045 84.2267 248.669 84.4827 249.277L84.5787 245.581H89.5227V267.613H84.6267L84.5307 263.725C84.2107 264.429 83.6667 265.117 82.8987 265.789C82.1627 266.461 81.2667 267.021 80.2107 267.469C79.1547 267.885 77.9867 268.093 76.7067 268.093ZM77.5707 263.773C78.7547 263.773 79.8267 263.501 80.7867 262.957C81.7787 262.381 82.5627 261.581 83.1387 260.557C83.7467 259.533 84.0507 258.317 84.0507 256.909V256.573C84.0507 255.133 83.7467 253.885 83.1387 252.829C82.5627 251.741 81.7787 250.909 80.7867 250.333C79.8267 249.725 78.7547 249.421 77.5707 249.421C75.4267 249.421 73.8107 250.109 72.7227 251.485C71.6667 252.861 71.1387 254.557 71.1387 256.573C71.1387 258.621 71.6667 260.333 72.7227 261.709C73.8107 263.085 75.4267 263.773 77.5707 263.773ZM95.6937 267.613V245.581H100.878V249.901C101.39 248.461 102.206 247.293 103.326 246.397C104.478 245.469 105.806 245.005 107.31 245.005C108.334 245.005 109.038 245.101 109.422 245.293L108.702 250.525C108.414 250.333 107.79 250.237 106.83 250.237C106.03 250.237 105.166 250.413 104.238 250.765C103.31 251.117 102.51 251.741 101.838 252.637C101.198 253.501 100.878 254.717 100.878 256.285V267.613H95.6937ZM112.956 267.613V245.581H118.332V267.613H112.956ZM115.644 241.453C114.652 241.453 113.82 241.117 113.148 240.445C112.508 239.773 112.188 238.941 112.188 237.949C112.188 237.053 112.508 236.285 113.148 235.645C113.82 235.005 114.652 234.685 115.644 234.685C116.636 234.685 117.452 235.005 118.092 235.645C118.764 236.285 119.1 237.053 119.1 237.949C119.1 238.941 118.764 239.773 118.092 240.445C117.452 241.117 116.636 241.453 115.644 241.453ZM132.156 268.093C131.132 268.093 130.06 267.997 128.94 267.805C127.852 267.613 126.844 267.373 125.916 267.085C125.02 266.765 124.332 266.429 123.852 266.077L125.58 261.997C126.124 262.381 126.94 262.813 128.028 263.293C129.148 263.773 130.524 264.013 132.156 264.013C133.596 264.013 134.572 263.805 135.084 263.389C135.596 262.941 135.852 262.429 135.852 261.853C135.852 261.245 135.628 260.781 135.18 260.461C134.764 260.109 134.156 259.789 133.356 259.501C132.556 259.213 131.612 258.861 130.524 258.445C129.468 257.997 128.46 257.485 127.5 256.909C126.54 256.301 125.756 255.565 125.148 254.701C124.572 253.805 124.284 252.717 124.284 251.437C124.284 249.357 125.084 247.773 126.684 246.685C128.284 245.565 130.396 245.005 133.02 245.005C134.364 245.005 135.66 245.149 136.908 245.437C138.188 245.725 139.148 246.093 139.788 246.541L137.916 250.669C137.532 250.285 136.892 249.933 135.996 249.613C135.132 249.293 134.092 249.133 132.876 249.133C130.604 249.133 129.468 249.821 129.468 251.197C129.468 251.869 129.708 252.413 130.188 252.829C130.7 253.213 131.356 253.549 132.156 253.837C132.988 254.093 133.884 254.413 134.844 254.797C136.796 255.565 138.284 256.461 139.308 257.485C140.364 258.477 140.892 259.805 140.892 261.469C140.892 262.973 140.492 264.221 139.692 265.213C138.892 266.205 137.82 266.941 136.476 267.421C135.164 267.869 133.724 268.093 132.156 268.093ZM155.55 268.093C153.598 268.093 151.774 267.629 150.078 266.701C148.414 265.773 147.07 264.445 146.046 262.717C145.022 260.989 144.51 258.925 144.51 256.525C144.51 254.221 144.942 252.205 145.806 250.477C146.702 248.749 147.95 247.405 149.55 246.445C151.182 245.485 153.118 245.005 155.358 245.005C156.702 245.005 157.918 245.245 159.006 245.725C160.126 246.173 161.054 246.733 161.79 247.405C162.558 248.045 163.07 248.669 163.326 249.277L163.422 245.581H168.366V267.613H163.47L163.374 263.725C163.054 264.429 162.51 265.117 161.742 265.789C161.006 266.461 160.11 267.021 159.054 267.469C157.998 267.885 156.83 268.093 155.55 268.093ZM156.414 263.773C157.598 263.773 158.67 263.501 159.63 262.957C160.622 262.381 161.406 261.581 161.982 260.557C162.59 259.533 162.894 258.317 162.894 256.909V256.573C162.894 255.133 162.59 253.885 161.982 252.829C161.406 251.741 160.622 250.909 159.63 250.333C158.67 249.725 157.598 249.421 156.414 249.421C154.27 249.421 152.654 250.109 151.566 251.485C150.51 252.861 149.982 254.557 149.982 256.573C149.982 258.621 150.51 260.333 151.566 261.709C152.654 263.085 154.27 263.773 156.414 263.773ZM174.541 267.613V245.581H179.629L179.677 249.613C180.253 248.301 181.181 247.213 182.461 246.349C183.773 245.453 185.341 245.005 187.165 245.005C189.533 245.005 191.309 245.501 192.493 246.493C193.677 247.453 194.461 248.829 194.845 250.621C195.261 252.413 195.469 254.541 195.469 257.005V267.613H190.285V257.149C190.285 254.589 190.029 252.637 189.517 251.293C189.037 249.949 187.901 249.277 186.109 249.277C185.181 249.277 184.221 249.565 183.229 250.141C182.237 250.717 181.405 251.549 180.733 252.637C180.061 253.725 179.725 255.069 179.725 256.669V267.613H174.541ZM201.689 267.613V232.333H206.969V248.077L219.065 232.333H225.497L213.353 247.837L227.225 267.613H220.649L209.849 251.821L206.969 255.373V267.613H201.689ZM238.332 268.093C236.38 268.093 234.556 267.629 232.86 266.701C231.196 265.773 229.852 264.445 228.828 262.717C227.804 260.989 227.292 258.925 227.292 256.525C227.292 254.221 227.724 252.205 228.588 250.477C229.484 248.749 230.732 247.405 232.332 246.445C233.964 245.485 235.9 245.005 238.14 245.005C239.484 245.005 240.7 245.245 241.788 245.725C242.908 246.173 243.836 246.733 244.572 247.405C245.34 248.045 245.852 248.669 246.108 249.277L246.204 245.581H251.148V267.613H246.252L246.156 263.725C245.836 264.429 245.292 265.117 244.524 265.789C243.788 266.461 242.892 267.021 241.836 267.469C240.78 267.885 239.612 268.093 238.332 268.093ZM239.196 263.773C240.38 263.773 241.452 263.501 242.412 262.957C243.404 262.381 244.188 261.581 244.764 260.557C245.372 259.533 245.676 258.317 245.676 256.909V256.573C245.676 255.133 245.372 253.885 244.764 252.829C244.188 251.741 243.404 250.909 242.412 250.333C241.452 249.725 240.38 249.421 239.196 249.421C237.052 249.421 235.436 250.109 234.348 251.485C233.292 252.861 232.764 254.557 232.764 256.573C232.764 258.621 233.292 260.333 234.348 261.709C235.436 263.085 237.052 263.773 239.196 263.773ZM259.57 267.613V249.805H255.682V245.581H259.57V236.605L264.802 235.453V245.581H269.89V249.805H264.802V267.613H259.57ZM274.394 267.613V245.581H279.77V267.613H274.394ZM277.082 241.453C276.09 241.453 275.258 241.117 274.586 240.445C273.946 239.773 273.626 238.941 273.626 237.949C273.626 237.053 273.946 236.285 274.586 235.645C275.258 235.005 276.09 234.685 277.082 234.685C278.074 234.685 278.89 235.005 279.53 235.645C280.202 236.285 280.538 237.053 280.538 237.949C280.538 238.941 280.202 239.773 279.53 240.445C278.89 241.117 278.074 241.453 277.082 241.453ZM285.916 267.613V245.581H291.004L291.052 249.613C291.628 248.301 292.556 247.213 293.836 246.349C295.148 245.453 296.716 245.005 298.54 245.005C300.908 245.005 302.684 245.501 303.868 246.493C305.052 247.453 305.836 248.829 306.22 250.621C306.636 252.413 306.844 254.541 306.844 257.005V267.613H301.66V257.149C301.66 254.589 301.404 252.637 300.892 251.293C300.412 249.949 299.276 249.277 297.484 249.277C296.556 249.277 295.596 249.565 294.604 250.141C293.612 250.717 292.78 251.549 292.108 252.637C291.436 253.725 291.1 255.069 291.1 256.669V267.613H285.916ZM323.807 279.133C322.559 279.133 321.359 279.005 320.207 278.749C319.087 278.493 318.111 278.205 317.279 277.885C316.447 277.597 315.887 277.373 315.599 277.213L316.751 272.413C317.519 272.925 318.463 273.389 319.583 273.805C320.703 274.253 322.063 274.477 323.663 274.477C324.399 274.477 325.151 274.397 325.919 274.237C326.719 274.109 327.471 273.805 328.175 273.325C328.879 272.877 329.439 272.189 329.855 271.261C330.303 270.365 330.527 269.165 330.527 267.661V263.725C329.887 264.909 328.815 265.933 327.311 266.797C325.839 267.661 324.159 268.093 322.271 268.093C320.351 268.093 318.591 267.629 316.991 266.701C315.423 265.741 314.159 264.397 313.199 262.669C312.271 260.909 311.807 258.845 311.807 256.477C311.807 254.205 312.239 252.221 313.103 250.525C313.999 248.797 315.247 247.453 316.847 246.493C318.479 245.501 320.399 245.005 322.607 245.005C323.951 245.005 325.183 245.245 326.303 245.725C327.423 246.173 328.351 246.733 329.087 247.405C329.855 248.045 330.367 248.669 330.623 249.277L330.719 245.581H335.615V267.469C335.615 271.085 334.671 273.933 332.783 276.013C330.927 278.093 327.935 279.133 323.807 279.133ZM323.711 263.725C324.895 263.725 325.967 263.453 326.927 262.909C327.919 262.333 328.703 261.533 329.279 260.509C329.887 259.485 330.191 258.269 330.191 256.861V256.525C330.191 255.085 329.887 253.837 329.279 252.781C328.703 251.693 327.919 250.861 326.927 250.285C325.967 249.677 324.895 249.373 323.711 249.373C321.567 249.373 319.951 250.061 318.863 251.437C317.807 252.813 317.279 254.509 317.279 256.525C317.279 258.573 317.807 260.285 318.863 261.661C319.951 263.037 321.567 263.725 323.711 263.725Z" fill="#0B6E6E"/>
<defs>
<clipPath id="clip0_355_130">
<rect width="160.376" height="160.376" fill="white" transform="translate(100.236)"/>
</clipPath>
</defs>
</svg>
