<svg width="14" height="16" viewBox="0 0 14 16" fill="none" xmlns="http://www.w3.org/2000/svg">
<path d="M6.654 0C4.88996 0.00194073 3.19872 0.703517 1.95129 1.95082C0.703863 3.19812 0.00211748 4.8893 0 6.65333C0 8.36667 1.32667 11.048 3.94333 14.6227C4.25484 15.0494 4.6627 15.3966 5.13373 15.6359C5.60476 15.8753 6.12565 16 6.654 16C7.18235 16 7.70324 15.8753 8.17427 15.6359C8.6453 15.3966 9.05316 15.0494 9.36467 14.6227C11.9813 11.048 13.308 8.36667 13.308 6.65333C13.3059 4.8893 12.6041 3.19812 11.3567 1.95082C10.1093 0.703517 8.41804 0.00194073 6.654 0V0ZM6.654 9.30533C6.12658 9.30533 5.61101 9.14894 5.17248 8.85592C4.73395 8.5629 4.39215 8.14643 4.19032 7.65916C3.98849 7.17189 3.93568 6.63571 4.03857 6.11843C4.14147 5.60114 4.39544 5.12599 4.76838 4.75305C5.14132 4.38011 5.61648 4.12613 6.13376 4.02324C6.65104 3.92035 7.18722 3.97315 7.67449 4.17499C8.16176 4.37682 8.57824 4.71862 8.87125 5.15715C9.16427 5.59568 9.32067 6.11125 9.32067 6.63867C9.32067 7.34591 9.03972 8.02419 8.53962 8.52429C8.03952 9.02438 7.36124 9.30533 6.654 9.30533Z" fill="#FF2013"/>
</svg>
