<svg width="30" height="35" viewBox="0 0 30 35" fill="none" xmlns="http://www.w3.org/2000/svg">
<mask id="path-1-inside-1_212_478" fill="white">
<path d="M30 28.3333V30H0V28.3333L3.33333 25V15C3.33333 9.83333 6.71667 5.28333 11.6667 3.81667V3.33333C11.6667 2.44928 12.0179 1.60143 12.643 0.976311C13.2681 0.351189 14.1159 0 15 0C15.8841 0 16.7319 0.351189 17.357 0.976311C17.9821 1.60143 18.3333 2.44928 18.3333 3.33333V3.81667C23.2833 5.28333 26.6667 9.83333 26.6667 15V25L30 28.3333ZM18.3333 31.6667C18.3333 32.5507 17.9821 33.3986 17.357 34.0237C16.7319 34.6488 15.8841 35 15 35C14.1159 35 13.2681 34.6488 12.643 34.0237C12.0179 33.3986 11.6667 32.5507 11.6667 31.6667"/>
</mask>
<path d="M30 28.3333V30H0V28.3333L3.33333 25V15C3.33333 9.83333 6.71667 5.28333 11.6667 3.81667V3.33333C11.6667 2.44928 12.0179 1.60143 12.643 0.976311C13.2681 0.351189 14.1159 0 15 0C15.8841 0 16.7319 0.351189 17.357 0.976311C17.9821 1.60143 18.3333 2.44928 18.3333 3.33333V3.81667C23.2833 5.28333 26.6667 9.83333 26.6667 15V25L30 28.3333ZM18.3333 31.6667C18.3333 32.5507 17.9821 33.3986 17.357 34.0237C16.7319 34.6488 15.8841 35 15 35C14.1159 35 13.2681 34.6488 12.643 34.0237C12.0179 33.3986 11.6667 32.5507 11.6667 31.6667" fill="white"/>
<path d="M30 28.3333V30H0V28.3333L3.33333 25V15C3.33333 9.83333 6.71667 5.28333 11.6667 3.81667V3.33333C11.6667 2.44928 12.0179 1.60143 12.643 0.976311C13.2681 0.351189 14.1159 0 15 0C15.8841 0 16.7319 0.351189 17.357 0.976311C17.9821 1.60143 18.3333 2.44928 18.3333 3.33333V3.81667C23.2833 5.28333 26.6667 9.83333 26.6667 15V25L30 28.3333ZM18.3333 31.6667C18.3333 32.5507 17.9821 33.3986 17.357 34.0237C16.7319 34.6488 15.8841 35 15 35C14.1159 35 13.2681 34.6488 12.643 34.0237C12.0179 33.3986 11.6667 32.5507 11.6667 31.6667" fill="black"/>
<path d="M30 28.3333V30H0V28.3333L3.33333 25V15C3.33333 9.83333 6.71667 5.28333 11.6667 3.81667V3.33333C11.6667 2.44928 12.0179 1.60143 12.643 0.976311C13.2681 0.351189 14.1159 0 15 0C15.8841 0 16.7319 0.351189 17.357 0.976311C17.9821 1.60143 18.3333 2.44928 18.3333 3.33333V3.81667C23.2833 5.28333 26.6667 9.83333 26.6667 15V25L30 28.3333ZM18.3333 31.6667C18.3333 32.5507 17.9821 33.3986 17.357 34.0237C16.7319 34.6488 15.8841 35 15 35C14.1159 35 13.2681 34.6488 12.643 34.0237C12.0179 33.3986 11.6667 32.5507 11.6667 31.6667" fill="#0B6E6E"/>
<path d="M30 28.3333H31V27.9191L30.7071 27.6262L30 28.3333ZM30 30V31H31V30H30ZM0 30H-1V31H0V30ZM0 28.3333L-0.707107 27.6262L-1 27.9191V28.3333H0ZM3.33333 25L4.04044 25.7071L4.33333 25.4142V25H3.33333ZM11.6667 3.81667L11.9508 4.77546L12.6667 4.56334V3.81667H11.6667ZM15 0V-1V0ZM18.3333 3.81667H17.3333V4.56334L18.0492 4.77546L18.3333 3.81667ZM26.6667 25H25.6667V25.4142L25.9596 25.7071L26.6667 25ZM30 28.3333H29V30H30H31V28.3333H30ZM30 30V29H0V30V31H30V30ZM0 30H1V28.3333H0H-1V30H0ZM0 28.3333L0.707107 29.0404L4.04044 25.7071L3.33333 25L2.62623 24.2929L-0.707107 27.6262L0 28.3333ZM3.33333 25H4.33333V15H3.33333H2.33333V25H3.33333ZM3.33333 15H4.33333C4.33333 10.2741 7.4274 6.11572 11.9508 4.77546L11.6667 3.81667L11.3826 2.85787C6.00594 4.45095 2.33333 9.39258 2.33333 15H3.33333ZM11.6667 3.81667H12.6667V3.33333H11.6667H10.6667V3.81667H11.6667ZM11.6667 3.33333H12.6667C12.6667 2.7145 12.9125 2.121 13.3501 1.68342L12.643 0.976311L11.9359 0.269204C11.1232 1.08186 10.6667 2.18406 10.6667 3.33333H11.6667ZM12.643 0.976311L13.3501 1.68342C13.7877 1.24583 14.3812 1 15 1V0V-1C13.8507 -1 12.7485 -0.543454 11.9359 0.269204L12.643 0.976311ZM15 0V1C15.6188 1 16.2123 1.24583 16.6499 1.68342L17.357 0.976311L18.0641 0.269204C17.2515 -0.543454 16.1493 -1 15 -1V0ZM17.357 0.976311L16.6499 1.68342C17.0875 2.121 17.3333 2.7145 17.3333 3.33333H18.3333H19.3333C19.3333 2.18406 18.8768 1.08186 18.0641 0.269204L17.357 0.976311ZM18.3333 3.33333H17.3333V3.81667H18.3333H19.3333V3.33333H18.3333ZM18.3333 3.81667L18.0492 4.77546C22.5726 6.11572 25.6667 10.2741 25.6667 15H26.6667H27.6667C27.6667 9.39258 23.9941 4.45095 18.6174 2.85787L18.3333 3.81667ZM26.6667 15H25.6667V25H26.6667H27.6667V15H26.6667ZM26.6667 25L25.9596 25.7071L29.2929 29.0404L30 28.3333L30.7071 27.6262L27.3738 24.2929L26.6667 25ZM18.3333 31.6667H17.3333C17.3333 32.2855 17.0875 32.879 16.6499 33.3166L17.357 34.0237L18.0641 34.7308C18.8768 33.9181 19.3333 32.8159 19.3333 31.6667H18.3333ZM17.357 34.0237L16.6499 33.3166C16.2123 33.7542 15.6188 34 15 34V35V36C16.1493 36 17.2515 35.5435 18.0641 34.7308L17.357 34.0237ZM15 35V34C14.3812 34 13.7877 33.7542 13.3501 33.3166L12.643 34.0237L11.9359 34.7308C12.7485 35.5435 13.8507 36 15 36V35ZM12.643 34.0237L13.3501 33.3166C12.9125 32.879 12.6667 32.2855 12.6667 31.6667H11.6667H10.6667C10.6667 32.8159 11.1232 33.9181 11.9359 34.7308L12.643 34.0237Z" fill="black" mask="url(#path-1-inside-1_212_478)"/>
</svg>
