<svg width="25" height="29" viewBox="0 0 25 29" fill="none" xmlns="http://www.w3.org/2000/svg">
<path d="M22 2.41666V-7.62939e-06H19.25V2.41666H16.5V-7.62939e-06H13.75V2.41666H11V-7.62939e-06H8.24998V2.41666H5.49999V-7.62939e-06H2.74999V2.41666H0V25.375C0 26.3364 0.434596 27.2584 1.20818 27.9383C1.98177 28.6181 3.03098 29 4.12499 29H20.625C21.719 29 22.7682 28.6181 23.5418 27.9383C24.3154 27.2584 24.7499 26.3364 24.7499 25.375V2.41666H22ZM13.75 20.5417H5.49999V18.125H13.75V20.5417ZM19.25 15.7083H5.49999V13.2917H19.25V15.7083ZM19.25 10.875H5.49999V8.45833H19.25V10.875Z" fill="black"/>
</svg>
