<svg width="38" height="38" viewBox="0 0 38 38" fill="none" xmlns="http://www.w3.org/2000/svg">
<path d="M18.75 0C8.4 0 0 8.4 0 18.75C0 29.1 8.4 37.5 18.75 37.5C29.1 37.5 37.5 29.1 37.5 18.75C37.5 8.4 29.1 0 18.75 0ZM29.625 21.2437C29.6625 21.5063 29.6812 21.7875 29.6812 22.0688C29.6812 26.2688 24.7875 29.6812 18.75 29.6812C12.7125 29.6812 7.81875 26.2688 7.81875 22.0688C7.81875 21.7875 7.8375 21.5063 7.875 21.2437C6.91875 20.8125 6.2625 19.8563 6.2625 18.75C6.25972 18.2123 6.41588 17.6858 6.71136 17.2366C7.00684 16.7874 7.42847 16.4356 7.92329 16.2252C8.41811 16.0149 8.96405 15.9554 9.49255 16.0543C10.021 16.1533 10.5085 16.4062 10.8938 16.7812C12.7875 15.4125 15.4125 14.55 18.3188 14.4563L19.7063 7.9125C19.725 7.78125 19.8 7.66875 19.9125 7.6125C20.025 7.5375 20.1562 7.51875 20.2875 7.5375L24.825 8.5125C24.9789 8.20046 25.2135 7.93528 25.5044 7.74446C25.7953 7.55364 26.132 7.44413 26.4795 7.42729C26.827 7.41045 27.1727 7.4869 27.4807 7.64871C27.7887 7.81051 28.0479 8.05177 28.2312 8.34747C28.4145 8.64318 28.5154 8.98254 28.5234 9.33038C28.5313 9.67821 28.4461 10.0218 28.2765 10.3256C28.1069 10.6294 27.8591 10.8823 27.5588 11.058C27.2585 11.2337 26.9167 11.3259 26.5688 11.325C25.5187 11.325 24.675 10.5 24.6187 9.46875L20.55 8.60625L19.3125 14.4563C22.1812 14.55 24.75 15.4312 26.625 16.7812C26.9124 16.5068 27.2564 16.2984 27.6327 16.1707C28.0091 16.0431 28.4088 15.9992 28.8039 16.0422C29.199 16.0851 29.58 16.2139 29.9201 16.4194C30.2603 16.625 30.5514 16.9024 30.7731 17.2322C30.9949 17.5621 31.1419 17.9364 31.2038 18.3289C31.2658 18.7215 31.2413 19.1229 31.1319 19.505C31.0225 19.8871 30.831 20.2407 30.5707 20.541C30.3104 20.8413 29.9877 21.0812 29.625 21.2437Z" fill="#0F6FB8"/>
<path d="M18.75 0C8.4 0 0 8.4 0 18.75C0 29.1 8.4 37.5 18.75 37.5C29.1 37.5 37.5 29.1 37.5 18.75C37.5 8.4 29.1 0 18.75 0ZM29.625 21.2437C29.6625 21.5063 29.6812 21.7875 29.6812 22.0688C29.6812 26.2688 24.7875 29.6812 18.75 29.6812C12.7125 29.6812 7.81875 26.2688 7.81875 22.0688C7.81875 21.7875 7.8375 21.5063 7.875 21.2437C6.91875 20.8125 6.2625 19.8563 6.2625 18.75C6.25972 18.2123 6.41588 17.6858 6.71136 17.2366C7.00684 16.7874 7.42847 16.4356 7.92329 16.2252C8.41811 16.0149 8.96405 15.9554 9.49255 16.0543C10.021 16.1533 10.5085 16.4062 10.8938 16.7812C12.7875 15.4125 15.4125 14.55 18.3188 14.4563L19.7063 7.9125C19.725 7.78125 19.8 7.66875 19.9125 7.6125C20.025 7.5375 20.1562 7.51875 20.2875 7.5375L24.825 8.5125C24.9789 8.20046 25.2135 7.93528 25.5044 7.74446C25.7953 7.55364 26.132 7.44413 26.4795 7.42729C26.827 7.41045 27.1727 7.4869 27.4807 7.64871C27.7887 7.81051 28.0479 8.05177 28.2312 8.34747C28.4145 8.64318 28.5154 8.98254 28.5234 9.33038C28.5313 9.67821 28.4461 10.0218 28.2765 10.3256C28.1069 10.6294 27.8591 10.8823 27.5588 11.058C27.2585 11.2337 26.9167 11.3259 26.5688 11.325C25.5187 11.325 24.675 10.5 24.6187 9.46875L20.55 8.60625L19.3125 14.4563C22.1812 14.55 24.75 15.4312 26.625 16.7812C26.9124 16.5068 27.2564 16.2984 27.6327 16.1707C28.0091 16.0431 28.4088 15.9992 28.8039 16.0422C29.199 16.0851 29.58 16.2139 29.9201 16.4194C30.2603 16.625 30.5514 16.9024 30.7731 17.2322C30.9949 17.5621 31.1419 17.9364 31.2038 18.3289C31.2658 18.7215 31.2413 19.1229 31.1319 19.505C31.0225 19.8871 30.831 20.2407 30.5707 20.541C30.3104 20.8413 29.9877 21.0812 29.625 21.2437Z" fill="#0B6E6E"/>
</svg>
