<svg width="25" height="25" viewBox="0 0 25 25" fill="none" xmlns="http://www.w3.org/2000/svg">
<g clip-path="url(#clip0_78_516)">
<path d="M25 9.375C25 8.5462 24.6708 7.75134 24.0847 7.16529C23.4987 6.57924 22.7038 6.25 21.875 6.25H18.75C18.75 4.5924 18.0915 3.00268 16.9194 1.83058C15.7473 0.65848 14.1576 0 12.5 0C10.8424 0 9.25268 0.65848 8.08058 1.83058C6.90848 3.00268 6.25 4.5924 6.25 6.25H3.125C2.2962 6.25 1.50134 6.57924 0.915291 7.16529C0.32924 7.75134 0 8.5462 0 9.375L0 19.7917C0.00165402 21.1725 0.550919 22.4963 1.52731 23.4727C2.50371 24.4491 3.82751 24.9983 5.20833 25H19.7917C21.1725 24.9983 22.4963 24.4491 23.4727 23.4727C24.4491 22.4963 24.9983 21.1725 25 19.7917V9.375ZM8.33333 6.25C8.33333 5.14493 8.77232 4.08512 9.55372 3.30372C10.3351 2.52232 11.3949 2.08333 12.5 2.08333C13.6051 2.08333 14.6649 2.52232 15.4463 3.30372C16.2277 4.08512 16.6667 5.14493 16.6667 6.25H8.33333Z" fill="#FFC847"/>
</g>
<defs>
<clipPath id="clip0_78_516">
<rect width="25" height="25" fill="white"/>
</clipPath>
</defs>
</svg>
