<svg width="22" height="25" viewBox="0 0 22 25" fill="none" xmlns="http://www.w3.org/2000/svg">
<path d="M15.9482 15.8645H14.9404L14.5832 15.4751C15.3804 14.4282 15.9631 13.195 16.2895 11.8637C16.6159 10.5325 16.6779 9.13617 16.4712 7.77466C15.8716 3.7658 12.912 0.564471 9.34 0.074178C8.08422 -0.105405 6.80873 0.0421238 5.61115 0.505476C4.41356 0.968828 3.32562 1.73572 2.43057 2.74747C1.53551 3.75923 0.857078 4.98902 0.447171 6.34276C0.037265 7.69649 -0.0932472 9.13828 0.0656219 10.5578C0.499362 14.5955 3.33143 17.941 6.87789 18.6188C8.08235 18.8525 9.31762 18.7823 10.4953 18.4134C11.673 18.0444 12.764 17.3858 13.6902 16.4846L14.0346 16.8883V18.0276L19.4563 24.1562C19.9794 24.7475 20.8341 24.7475 21.3572 24.1562C21.8802 23.565 21.8802 22.5988 21.3572 22.0076L15.9482 15.8645ZM8.29392 15.8645C5.11742 15.8645 2.55325 12.966 2.55325 9.37533C2.55325 5.78465 5.11742 2.88615 8.29392 2.88615C11.4704 2.88615 14.0346 5.78465 14.0346 9.37533C14.0346 12.966 11.4704 15.8645 8.29392 15.8645Z" fill="black"/>
</svg>
