<svg width="13" height="13" viewBox="0 0 13 13" fill="none" xmlns="http://www.w3.org/2000/svg">
<g clip-path="url(#clip0_234_121)">
<path d="M6.5 1.08333C7.22012 1.0847 7.93281 1.22905 8.59671 1.508C9.26061 1.78695 9.86251 2.19495 10.3675 2.70833H8.125V3.79167H10.9108C11.1775 3.79138 11.4332 3.68531 11.6217 3.49674C11.8103 3.30816 11.9164 3.05248 11.9167 2.78579V0H10.8333V1.6575C9.89823 0.821114 8.74105 0.273216 7.50145 0.0799236C6.26185 -0.113369 4.9928 0.0562043 3.84744 0.56818C2.70208 1.08016 1.72936 1.91266 1.04666 2.96522C0.363954 4.01778 0.00044655 5.24542 0 6.5H1.08333C1.08491 5.06389 1.6561 3.68706 2.67158 2.67158C3.68706 1.6561 5.06389 1.08491 6.5 1.08333V1.08333Z" fill="#0B6E6E"/>
<path d="M11.9168 6.5C11.9167 7.57577 11.5962 8.62713 10.9962 9.52006C10.3963 10.413 9.54404 11.1071 8.54813 11.5138C7.55221 11.9205 6.45774 12.0215 5.40423 11.8039C4.35071 11.5862 3.38586 11.0598 2.63266 10.2917H4.87516V9.20833H2.08937C1.82268 9.20862 1.567 9.31469 1.37843 9.50326C1.18985 9.69184 1.08378 9.94752 1.0835 10.2142V13H2.16683V11.3425C3.10194 12.1789 4.25911 12.7268 5.49871 12.9201C6.73831 13.1134 8.00736 12.9438 9.15272 12.4318C10.2981 11.9198 11.2708 11.0873 11.9535 10.0348C12.6362 8.98222 12.9997 7.75458 13.0002 6.5H11.9168Z" fill="#0B6E6E"/>
</g>
<defs>
<clipPath id="clip0_234_121">
<rect width="13" height="13" fill="white"/>
</clipPath>
</defs>
</svg>
